<svg xmlns="http://www.w3.org/2000/svg" viewBox="0 0 512 512">
  <defs><linearGradient id="g" x1="0" y1="0" x2="1" y2="1"><stop stop-color="#13c8b5"/><stop offset="1" stop-color="#2878ff"/></linearGradient></defs>
  <rect width="512" height="512" rx="112" fill="#07111f"/>
  <path d="M92 315c64-65 113-69 164-12 51 56 100 53 164-13v88c-62 55-113 55-164 2-51-54-102-54-164 4z" fill="url(#g)"/>
  <path d="M137 247c34-28 55-63 61-105 24 19 38 46 38 76 0 48-36 86-80 86-12 0-23-3-34-8 15-12 25-29 30-49zM295 233c31-25 50-56 56-95 22 18 34 42 34 70 0 43-32 78-73 78-11 0-22-2-31-7 13-11 22-26 27-45z" fill="#eafcff" opacity=".94"/>
</svg>
